<svg xmlns="http://www.w3.org/2000/svg" width="1200" height="630" viewBox="0 0 1200 630">
  <!-- Background -->
  <rect width="1200" height="630" fill="#0f172a"/>

  <!-- Grid pattern -->
  <defs>
    <pattern id="grid" width="40" height="40" patternUnits="userSpaceOnUse">
      <path d="M 40 0 L 0 0 0 40" fill="none" stroke="rgba(56,189,248,0.12)" stroke-width="1"/>
    </pattern>
  </defs>
  <rect width="1200" height="630" fill="url(#grid)"/>

  <!-- Decorative shapes -->
  <rect x="80" y="180" width="160" height="120" rx="12" fill="none" stroke="#3b82f6" stroke-width="3" opacity="0.7"/>
  <ellipse cx="320" cy="240" rx="70" ry="70" fill="none" stroke="#8b5cf6" stroke-width="3" opacity="0.7"/>
  <polygon points="500,160 560,300 440,300" fill="none" stroke="#06b6d4" stroke-width="3" opacity="0.7"/>
  <line x1="620" y1="200" x2="760" y2="200" stroke="#f59e0b" stroke-width="3" opacity="0.7"/>
  <rect x="800" y="160" width="200" height="160" rx="12" fill="none" stroke="#10b981" stroke-width="3" opacity="0.7"/>

  <!-- Pen stroke decoration -->
  <path d="M 100 380 Q 200 340 300 370 Q 400 400 500 360 Q 600 320 700 350" fill="none" stroke="#f472b6" stroke-width="4" stroke-linecap="round" opacity="0.6"/>

  <!-- Brand logo circle -->
  <circle cx="600" cy="220" r="56" fill="#2563eb"/>
  <text x="600" y="240" text-anchor="middle" font-family="Georgia, serif" font-size="64" font-weight="bold" fill="white">D</text>

  <!-- Title -->
  <text x="600" y="360" text-anchor="middle" font-family="Arial, sans-serif" font-size="52" font-weight="bold" fill="white">DrawDashBoard</text>

  <!-- Subtitle -->
  <text x="600" y="420" text-anchor="middle" font-family="Arial, sans-serif" font-size="26" fill="#94a3b8">Sketch ideas · organize visually</text>

  <!-- Feature tags -->
  <rect x="290" y="460" width="130" height="38" rx="19" fill="#1e3a5f"/>
  <text x="355" y="484" text-anchor="middle" font-family="Arial, sans-serif" font-size="18" fill="#60a5fa">자유 드로잉</text>

  <rect x="440" y="460" width="130" height="38" rx="19" fill="#1e3a5f"/>
  <text x="505" y="484" text-anchor="middle" font-family="Arial, sans-serif" font-size="18" fill="#60a5fa">도형 그리기</text>

  <rect x="590" y="460" width="130" height="38" rx="19" fill="#1e3a5f"/>
  <text x="655" y="484" text-anchor="middle" font-family="Arial, sans-serif" font-size="18" fill="#60a5fa">PDF 내보내기</text>

  <rect x="740" y="460" width="130" height="38" rx="19" fill="#1e3a5f"/>
  <text x="805" y="484" text-anchor="middle" font-family="Arial, sans-serif" font-size="18" fill="#60a5fa">이미지 삽입</text>

  <!-- Bottom URL -->
  <text x="600" y="580" text-anchor="middle" font-family="Arial, sans-serif" font-size="20" fill="#475569">draw-dash-board.pages.dev</text>
</svg>
